<?xml version="1.0" encoding="utf-8"?>
<!-- Generator: Adobe Illustrator 25.2.3, SVG Export Plug-In . SVG Version: 6.00 Build 0)  -->
<svg version="1.1" id="Layer_1" xmlns="http://www.w3.org/2000/svg" xmlns:xlink="http://www.w3.org/1999/xlink" x="0px" y="0px"
	 viewBox="0 0 1080 1080" style="enable-background:new 0 0 1080 1080;" xml:space="preserve">
<style type="text/css">
	.st0{fill:#F4D242;}
	.st1{fill:#59595B;}
	.st2{fill:#808183;}
	.st3{fill:#FFFFFF;}
</style>
<g>
	<path class="st0" d="M840.86,505.23c0-164.92-133.69-298.61-298.61-298.61c-164.92,0-299.18,134.74-298.61,299.66
		c0.28,81.89,33.54,156.01,87.18,209.79c41.76,41.86,72.3,93.56,87.74,150.64l24.08,89.05h195.74l22.81-84.34
		c15.77-58.31,47.35-110.92,90.42-153.27C806.69,663.98,840.86,588.6,840.86,505.23L840.86,505.23z"/>
	<path class="st1" d="M587.47,1060.06h-95.44c-27.04,0-50.17-19.97-51.71-45.3l-8.06-97.79l216.15-1.39l-9.23,99.18
		C637.64,1040.09,614.51,1060.06,587.47,1060.06L587.47,1060.06z"/>
	<path class="st2" d="M628.97,958.23c-60.38,2.58-120.97-0.51-181.35,2.16c-5.36,0.24-4.96,8.06,0.3,8.24
		c60.42,2.01,121.01-1.74,181.43,0.18C636.14,969.02,635.84,957.93,628.97,958.23L628.97,958.23z"/>
	<path class="st2" d="M628.97,984.45c-60.38,2.58-120.97-0.51-181.35,2.16c-5.36,0.24-4.96,8.06,0.3,8.24
		c60.42,2.01,121.01-1.74,181.43,0.18C636.14,995.25,635.84,984.16,628.97,984.45L628.97,984.45z"/>
	<path class="st0" d="M566.6,54.78c0,19.24-10.23,88.42-22.85,88.42c-12.62,0-22.85-69.18-22.85-88.42
		c0-19.24,10.23-34.84,22.85-34.84C556.37,19.94,566.6,35.54,566.6,54.78L566.6,54.78z"/>
	<path class="st0" d="M851.35,161.03c-14.6,12.54-60.4,65.38-52.17,74.96c8.23,9.57,67.36-27.75,81.96-40.29
		c14.6-12.54,19.76-30.47,11.53-40.04C884.45,146.08,865.95,148.49,851.35,161.03L851.35,161.03z"/>
	<path class="st0" d="M962.34,469.74c-19.09,2.42-89.01,0.99-90.6-11.53c-1.59-12.52,65.75-31.39,84.84-33.81
		c19.09-2.42,35.85,5.76,37.45,18.28C995.61,455.2,981.42,467.32,962.34,469.74L962.34,469.74z"/>
	<path class="st0" d="M262.27,138.05c15.15,11.86,63.31,62.57,55.53,72.51c-7.78,9.94-68.55-24.66-83.7-36.53
		c-15.15-11.86-21.12-29.54-13.34-39.47C228.53,124.62,247.12,126.19,262.27,138.05L262.27,138.05z"/>
	<path class="st0" d="M117.66,420.29c19.09,2.42,89.01,0.99,90.6-11.53c1.59-12.52-65.75-31.39-84.84-33.81
		c-19.09-2.43-35.86,5.76-37.45,18.28C84.39,405.75,98.58,417.86,117.66,420.29L117.66,420.29z"/>
	<path class="st3" d="M638.04,577.73c0.56-7.43,2.52-14.74,5-21.75c1.12-3.17,2.56-6.15,4.35-9c0.14-0.22,0.77-1.03,1.41-1.74
		c0.08,0.49,0.29,1.17,0.34,2.16c0.96,18.12-0.54,37.67-6.18,54.95c-0.7,2.14-1.54,4.22-2.49,6.24
		C638.09,598.45,637.27,587.94,638.04,577.73L638.04,577.73z M568.28,532.73c0.63,7.15-1.02,15.98-1.42,20.32
		c-0.73,7.92-2.12,15.77-3.94,23.52C561.05,561.32,562.3,545.69,568.28,532.73L568.28,532.73z M671.13,657.27
		c-9.6-7.02-17.06-16.21-22.49-26.55c10.83-13.37,15.6-31.35,17.58-48.06c1.21-10.22,1.56-20.46,1.72-30.74
		c0.16-9.91-1.15-18.33-9.53-24.49c-7.48-5.5-17.47-0.53-23.21,4.8c-6.63,6.16-9.83,16.24-12.39,24.63
		c-5.17,16.96-5.07,35.13-1.83,52.42c1.13,6.03,2.82,11.94,4.99,17.68c-4.24,3.32-9.04,5.95-14.35,7.64
		c-16.32,5.22-28.7-4.18-36.25-18.09c-1.24-2.28-2.42-4.71-3.53-7.23c1.28-3.44,2.51-6.87,3.65-10.27
		c5.55-16.53,8.62-33.84,10.01-51.19c1.15-14.38,1.56-31.57-12.28-40.08c-4.45-2.74-9.44-0.67-12.24,3.21
		c-20.21,28.04-19.08,65.24-8.1,97.06c-3.53,8.46-7.69,16.65-12.29,24.59c-5.07,8.73-14.74,22.19-26.48,20.49
		c-10.93-1.59-19.67-15.31-25.1-23.79c-3.98-6.22-7.11-12.86-9.57-19.76c1.39-3.65,2.68-7.35,3.87-11.09
		c4.66-14.69,7.27-30.01,8.49-45.35c1.02-12.81,1.43-30.8-12.58-36.94c-4.08-1.79-10.09-1.6-12.25,3.21
		c-12.3,27.37-14.65,57.4-6.9,86.4c0.26,0.99,0.57,1.96,0.86,2.94c-8.5,21.63-21.41,41.65-37.1,58.68
		c-7.04,7.64,4.1,18.92,11.43,11.44c13.99-14.28,25.62-30.5,34.71-48.1c2.7,5.07,5.73,9.95,9.07,14.57
		c9.15,12.67,20.61,24.53,37.08,25.42c15.37,0.83,27.86-12.1,36.19-23.33c4-5.39,7.49-11.27,10.6-17.39
		c7.53,12,18.39,21.51,33.19,23.59c13.61,1.91,26.8-2.32,37.96-9.79c6.54,11.12,14.98,21.13,24.82,29.37
		C670.11,682.57,682.95,665.91,671.13,657.27L671.13,657.27z"/>
	<path class="st3" d="M688.12,613.35c-31.75,96.91-65.17,193.34-101.08,288.79c-4.3,11.43,13.31,18.43,17.58,7.01
		c35.78-95.6,69.02-192.06,98.82-289.69C706.51,609.39,691.44,603.2,688.12,613.35L688.12,613.35z"/>
	<path class="st3" d="M399.33,607.22c25.34,98.78,49.01,198.05,70.06,297.84c2.52,11.95,21.13,8.38,18.59-3.54
		c-21.23-99.84-45.08-199.04-72.45-297.38C412.7,593.99,396.67,596.88,399.33,607.22L399.33,607.22z"/>
</g>
</svg>
