<?xml version="1.0" encoding="utf-8"?>
<!-- Generator: Adobe Illustrator 25.2.3, SVG Export Plug-In . SVG Version: 6.00 Build 0)  -->
<svg version="1.1" id="Layer_1" xmlns="http://www.w3.org/2000/svg" xmlns:xlink="http://www.w3.org/1999/xlink" x="0px" y="0px"
	 viewBox="0 0 1080 1080" style="enable-background:new 0 0 1080 1080;" xml:space="preserve">
<style type="text/css">
	.st0{fill:none;stroke:#FFFFFF;stroke-width:2;stroke-miterlimit:10;}
	.st1{fill:#59595B;}
	.st2{fill:#808183;}
	.st3{fill:#FFFFFF;}
</style>
<g>
	<path class="st0" d="M642.98,513.68c0.02-0.9,0.02-1.8,0.02-2.68C642.95,511.91,642.96,512.79,642.98,513.68z"/>
	<path class="st0" d="M642.98,513.68c-0.04,1.77-0.17,3.52-0.53,5.04c0.34,0.08,0.69,0.15,1.04,0.22
		C643.2,517.22,643.02,515.47,642.98,513.68z"/>
	<path class="st0" d="M643.49,518.94c2.71,15.99,15.2,28.54,19.51,44.06c-6-3-15-3-18,0c-8,8-15,25-28,23c-9-1-16-14-22-12
		c-7,2-8,24-20,19c-2-1-4-7-4-12c-7,1-15,0-18-4c-4-6-13-17-4-24c-2,1-4,0-6-2c0-1,0-2,0-3c2,1,4-1,6-1
		c-0.7-2.79-0.92-5.58-1.67-8.03c0,0.01,0,0.02,0,0.03c0-0.01,0-0.02,0-0.03c-0.32-1.06-0.73-2.06-1.33-2.97c-1-3-4-7-3-11
		c2-3,4-5,3-9c1,4-1,6-3,9c-1,4,2,8,3,11c0.6,0.9,1.01,1.91,1.33,2.97l0-25.59c-0.4,0.53-0.84,1.07-1.33,1.62
		c0.5-0.55,0.93-1.09,1.33-1.62l0-17.1c-1.95-3.55-4.48-7.21-6.33-11.28c-2.18-5.81,0.92-11.63,4.7-16.67
		c-21.48-21.03-61.84-16.03-80.36-43.33c-9-15,6-33,8-51c-25-14-51-26-76-39c3-21,17-37,30-53c-11.2-11.94-24.07-23.33-34.86-36.24
		c-62.82,35.9-111.45,93.94-135.16,163.36c5.38,1.43,10.66,3,15.69,4.89c6,2,7,15,13,16c5,0,11-9,18-8c1,0,0,4,2,6c10,9,21,20,21,33
		c-9-2-18-5-28-6c1,6,0,14-4,16c-5,2-11,0-17-2c-8-3-21,2-29-3c-1.65-1.1-3.07-2.59-4.44-4.23c-2.13,14.53-3.22,29.4-3.17,44.52
		c0.11,31.8,5.21,62.41,14.52,91.13c5.34-18.32,8.96-37.23,14.42-55.41c34,13,67,33,104,34c7-15,15-30,19-46c4-17-6-34-10-51
		c38,4,74,14,111,23c-37-9-73-19-111-23c4,17,14,34,10,51c-4,16-12,31-19,46c-37-1-70-21-104-34c-5.45,18.18-9.08,37.1-14.42,55.41
		c14.67,45.24,39.84,85.76,72.65,118.66c41.76,41.86,72.3,93.56,87.74,150.64l24.08,89.05h195.74l22.81-84.34
		c15.77-58.31,47.35-110.92,90.42-153.27c55.09-54.17,89.26-129.55,89.26-212.92c0-50.11-12.37-97.32-34.18-138.79
		c-3.24,3.39-1.74,19.61-7.43,20.55c-14,2-14,10-19,20c-0.41,0.82-1.16,1.47-2.04,2.09c0.02,0.3,0.04,0.61,0.04,0.91c0,2-2,2-4,2
		c1.18-1.18,2.7-2.01,3.96-2.91C775.6,403.39,772,397.7,772,392c-4,5-4,11-7,17c-3-7-5-9-13-11c0,0,0-2,0-3c2,2,6,2,7,1
		c3-4,4-11,1-15c-3-5-3-11-1-16c1-6,7-5,9-10c4-7-1-17,3-26c0-2,4-4,7-3c0-0.37-0.01-0.75-0.02-1.13
		c-10.61-13.97-22.42-26.98-35.27-38.88c-9.7,4.47-19.96,6.91-31.37,5.01c-22-3-42-15-65-19c-6,24-1,48,9,70c2,4,1,9,1,13
		c-29,0-57-4-86,1c29-5,57-1,86-1c0-4,1-9-1-13c-10-22-15-46-9-70c23,4,43,16,65,19c11.41,1.9,21.67-0.54,31.37-5.01
		c-19.59-18.13-41.63-33.65-65.55-46.04c-3.32,2.56-7.56,4.54-12.16,7.05c-2,1-2,8-5,9c-5,3,1-3-1-5c-5-6-9-11-16-14
		c4.61-2.13,7.2-5.26,8.41-8.86c-24.38-9.81-50.35-16.51-77.42-19.58c-4.18,2.65-7.48,5.42-7.99,8.45c-5,17-6,47-30,43
		c-0.93,5.59-0.99,11.18-1,16.77c0.33,0.08,0.67,0.15,1,0.23c-0.33-0.07-0.67-0.15-1-0.23c0,0.41,0,0.82,0,1.23
		c0-0.41,0-0.82,0-1.23c-8.8-2-19.07-5.03-21-11.77c-3-14-6-25-20-30c-3-2,4-10,0-14c-2.26-3.01-4.51-6.3-6.29-9.77
		c-34.07,6.06-66.17,17.92-95.24,34.53c10.8,12.91,23.67,24.3,34.86,36.24c-13,16-27,32-30,53c25,13,51,25,76,39c-2,18-17,36-8,51
		c18.52,27.29,58.89,22.29,80.36,43.33c1.42-1.9,2.94-3.69,4.3-5.33c2-2,2-8,1-8c-6.19-3.09-9.61-7.06-11.28-11.51
		c-17.26,0.79-35.3-7.1-51.38-15.49c-4-3-10,5-16,4c6,1,12-7,16-4c16.08,8.39,34.12,16.28,51.38,15.49
		c-4.28-11.39,2.84-25.99,4.28-37.49c13,10,19,25,33,34c15,9,2,25,2,38c0,3-2,9,2,11c3,1,7-4,10-2c4,4,6,13,12,12c5-1,7-8,10-12
		c5,9,4,20,10,29c1,0,3,0,4,0c4,3,7,9,12,7c1.93-0.48,2.93-2.14,3.44-4.28c-4.25-0.97-7.45-2.74-8.11-6.72c-3-17,16-33,23-50
		c5-13-20-11-31-16c11,5,36,3,31,16c-7,17-26,33-23,50c0.66,3.97,3.85,5.75,8.11,6.72c0.37-1.52,0.49-3.27,0.53-5.04
		c-0.02-0.88-0.02-1.77,0.02-2.68c0,0.87,0,1.78-0.02,2.68C643.02,515.47,643.2,517.22,643.49,518.94 M617.34,296c10-1,18,8,27,13
		C635.34,304,627.34,295,617.34,296c-6,1-4,11-5,17C613.34,307,611.34,297,617.34,296z M606.34,435c-1-11,2-22-2-32
		C608.34,413,605.34,424,606.34,435z M629.34,355c1,14-5,33,10,41C624.34,388,630.34,369,629.34,355z M482.34,470c-1,1,0,3,0,5
		C482.34,473,481.34,471,482.34,470c11-8,4-15,3-25C486.34,455,493.34,462,482.34,470z M646.34,297c3-5,9-3,12-7c4,4,4,12,7,14
		c7,3,17-1,26,0c-9,1-10,12-14,18c-1,3-1-3-3-5c2,2,2,8,3,5c4-6,5-17,14-18c-9-1-19,3-26,0c-3-2-3-10-7-14
		C655.34,294,649.34,292,646.34,297z M667.34,501c-4-1-6-9-11-12c-3-2-12.15-2.91-16.15,1.09c4-4,13.15-3.09,16.15-1.09
		C661.34,492,663.34,500,667.34,501c16,5,34,2,51,2C701.34,503,683.34,506,667.34,501z"/>
	<path class="st0" d="M541,485c1.85,4.07,4.38,7.73,6.33,11.28l0-26.28c-0.53-0.58-1.08-1.13-1.64-1.67
		C541.92,473.37,538.82,479.19,541,485z"/>
	<path class="st0" d="M776,410c0-0.3-0.02-0.61-0.04-0.91c-1.26,0.9-2.78,1.73-3.96,2.91C774,412,776,412,776,410z"/>
	<path class="st1" d="M585.21,1060.06h-95.44c-27.04,0-50.17-19.97-51.71-45.3l-8.06-97.79l216.15-1.39l-9.23,99.18
		C635.39,1040.09,612.25,1060.06,585.21,1060.06L585.21,1060.06z"/>
	<path class="st2" d="M626.72,958.23c-60.38,2.58-120.97-0.51-181.35,2.16c-5.36,0.24-4.96,8.06,0.3,8.24
		c60.42,2.01,121.01-1.74,181.43,0.18C633.89,969.02,633.59,957.93,626.72,958.23L626.72,958.23z"/>
	<path class="st2" d="M626.72,984.45c-60.38,2.58-120.97-0.51-181.35,2.16c-5.36,0.24-4.96,8.06,0.3,8.24
		c60.42,2.01,121.01-1.74,181.43,0.18C633.89,995.25,633.59,984.16,626.72,984.45L626.72,984.45z"/>
	<path class="st3" d="M685.86,613.35c-31.75,96.91-65.17,193.34-101.08,288.79c-4.3,11.43,13.31,18.43,17.58,7.01
		c35.78-95.6,69.02-192.06,98.82-289.69C704.26,609.39,689.19,603.2,685.86,613.35L685.86,613.35z"/>
	<path class="st3" d="M397.07,607.22c25.34,98.78,49.01,198.05,70.06,297.84c2.52,11.95,21.13,8.38,18.59-3.54
		c-21.23-99.84-45.08-199.04-72.45-297.38C410.45,593.99,394.42,596.88,397.07,607.22L397.07,607.22z"/>
</g>
</svg>
